<svg xmlns="http://www.w3.org/2000/svg" viewBox="0 0 64 64" width="128" height="128">
  <!-- Candidate B: an open book whose pages ARE curly braces, spine between, bookmark ribbon below -->
  <g fill="none" stroke="#2b2822" stroke-width="3.5" stroke-linecap="round" stroke-linejoin="round">
    <path d="M 26 12 C 21 12, 21 17, 21 22 C 21 27, 19 29, 15 31 C 19 33, 21 35, 21 40 C 21 45, 21 50, 26 50"/>
    <path d="M 38 12 C 43 12, 43 17, 43 22 C 43 27, 45 29, 49 31 C 45 33, 43 35, 43 40 C 43 45, 43 50, 38 50"/>
    <line x1="32" y1="13" x2="32" y2="49"/>
  </g>
  <path d="M 29.5 46 V 58 L 32 54.5 L 34.5 58 V 46 Z" fill="#b3261e"/>
</svg>
